<svg width="96" height="31" viewBox="0 0 96 31" fill="none" xmlns="http://www.w3.org/2000/svg">
<path d="M86.344 0H0V30.081H86.344V0Z" fill="#366FC2"/>
<path d="M95.6148 14.3599C95.7354 14.55 95.7998 14.7733 95.7998 15.0018C95.7998 15.2302 95.7354 15.4536 95.6148 15.6437L87.017 29.1881C86.8854 29.3937 86.6945 29.5496 86.4724 29.6328C86.2502 29.716 86.0085 29.7222 85.7827 29.6504C85.5569 29.5786 85.3591 29.4327 85.2181 29.234C85.0772 29.0354 85.0007 28.7945 84.9998 28.5468V1.45795C84.9998 1.20948 85.0758 0.967582 85.2168 0.768018C85.3577 0.568455 85.5561 0.421814 85.7825 0.349774C86.0089 0.277733 86.2514 0.284116 86.4741 0.367978C86.6968 0.45184 86.8879 0.60873 87.0192 0.815459L95.6148 14.3599Z" fill="#366FC2"/>
</svg>
