<svg width="21" height="26" viewBox="0 0 21 26" fill="none" xmlns="http://www.w3.org/2000/svg">
<path d="M13.274 23.338L17.819 18.561H13.274V23.338ZM10.174 3.027C10.9893 3.02608 11.7866 3.2669 12.465 3.719C12.9138 4.02205 13.2993 4.40959 13.6 4.86C13.7501 5.08456 13.8778 5.32339 13.981 5.573C14.2919 6.32591 14.3736 7.15383 14.216 7.953C14.1637 8.21756 14.085 8.4762 13.981 8.725V8.725C13.8781 8.97417 13.7505 9.21236 13.6 9.436C13.4499 9.66124 13.2777 9.87094 13.086 10.062C12.8952 10.2526 12.6862 10.424 12.462 10.574C12.2369 10.7233 11.9982 10.8509 11.749 10.955C11.5012 11.0574 11.244 11.1354 10.981 11.188C10.4501 11.2924 9.90393 11.2924 9.37301 11.188C9.10845 11.1357 8.84982 11.057 8.60101 10.953C8.35097 10.8493 8.11153 10.7217 7.88601 10.572C7.66144 10.4226 7.4524 10.2511 7.26201 10.06C7.07091 9.86838 6.89877 9.65874 6.74801 9.434C6.44764 8.984 6.23836 8.47949 6.13201 7.949C6.02764 7.41808 6.02764 6.87192 6.13201 6.341C6.18427 6.07644 6.263 5.81781 6.36701 5.569C6.47026 5.31939 6.59788 5.08056 6.74801 4.856C6.89918 4.63157 7.07129 4.42196 7.26201 4.23C7.64424 3.84613 8.09908 3.54222 8.60001 3.336V3.336C8.84709 3.23269 9.10363 3.15365 9.36601 3.1C9.63181 3.05021 9.90159 3.02478 10.172 3.024L10.174 3.027ZM8.28501 7.667C8.24946 7.62846 8.22072 7.58417 8.20001 7.536C8.1793 7.4879 8.16777 7.43634 8.16601 7.384C8.16397 7.32531 8.17244 7.26672 8.19101 7.211C8.21066 7.15525 8.24164 7.10418 8.28201 7.061L8.30001 7.039C8.33879 7.00178 8.38381 6.97165 8.43301 6.95C8.4817 6.92865 8.5339 6.91645 8.58701 6.914V6.914C8.64506 6.91181 8.70302 6.92028 8.75801 6.939C8.81267 6.95874 8.86295 6.98898 8.90601 7.028V7.028C9.05601 7.172 9.21701 7.316 9.37801 7.457L9.57801 7.635L11.408 5.72C11.4478 5.67797 11.4953 5.64402 11.548 5.62C11.6014 5.59672 11.6588 5.58383 11.717 5.582H11.725C11.7807 5.58233 11.8359 5.59249 11.888 5.612C11.9415 5.63255 11.9905 5.66347 12.032 5.703L12.04 5.711C12.082 5.7508 12.116 5.79834 12.14 5.851C12.1631 5.90449 12.1759 5.9618 12.178 6.02V6.028C12.1777 6.08368 12.1675 6.13886 12.148 6.191C12.1272 6.24438 12.0963 6.29326 12.057 6.335L9.92901 8.571C9.84865 8.65563 9.7386 8.70582 9.62201 8.711V8.711C9.56461 8.7132 9.50731 8.70472 9.45301 8.686C9.39714 8.66702 9.34526 8.63787 9.30001 8.6C8.98101 8.3 8.57601 7.98 8.28201 7.669L8.28501 7.667ZM12.453 4.867C12.0032 4.41519 11.4286 4.10806 10.803 3.985C10.3867 3.90319 9.95836 3.90319 9.54201 3.985C9.33679 4.02689 9.13592 4.08782 8.94201 4.167C8.74703 4.24799 8.56075 4.34851 8.38601 4.467C8.21041 4.58499 8.04605 4.71888 7.89501 4.867C7.74639 5.0176 7.61246 5.18201 7.49501 5.358C7.25947 5.70854 7.09628 6.10257 7.01501 6.517C6.9332 6.93335 6.9332 7.36165 7.01501 7.778C7.0566 7.9833 7.11754 8.1842 7.19701 8.378C7.27878 8.57261 7.37926 8.75881 7.49701 8.934C7.61499 9.1096 7.74889 9.27396 7.89701 9.425C8.19729 9.72405 8.5529 9.96181 8.94401 10.125C9.13724 10.2061 9.3383 10.2671 9.54401 10.307C9.96036 10.3888 10.3887 10.3888 10.805 10.307C11.0105 10.2661 11.2114 10.2051 11.405 10.125C11.599 10.0432 11.7845 9.94274 11.959 9.825C12.1346 9.70701 12.299 9.57312 12.45 9.425C12.7501 9.12557 12.988 8.76974 13.15 8.378C13.2302 8.18444 13.2911 7.98348 13.332 7.778C13.4138 7.36165 13.4138 6.93335 13.332 6.517C13.2904 6.31171 13.2295 6.11081 13.15 5.917C13.069 5.72202 12.9685 5.53574 12.85 5.361C12.7346 5.18291 12.6005 5.01764 12.45 4.868L12.453 4.867ZM4.00501 19.048H8.07401V20.218H4.00501V19.048V19.048ZM4.00501 16.075H9.77901V17.245H4.00501V16.075V16.075ZM4.00501 13.105H16.34V14.275H4.00501V13.1V13.105ZM20.347 17.952C20.3472 18.117 20.2937 18.2775 20.1944 18.4092C20.0952 18.541 19.9556 18.6367 19.797 18.682L13.1 25.721C13.0295 25.808 12.9405 25.8782 12.8395 25.9264C12.7385 25.9747 12.628 25.9998 12.516 26H1.36001C1.18108 26.0003 1.00387 25.9652 0.838553 25.8967C0.673235 25.8283 0.523071 25.7279 0.396692 25.6012C0.270312 25.4745 0.170208 25.3242 0.102132 25.1587C0.0340559 24.9932 -0.000649766 24.8159 9.21103e-06 24.637V1.36C-0.000254123 1.18133 0.0347436 1.00436 0.102997 0.839241C0.17125 0.674119 0.271417 0.524089 0.397757 0.397749C0.524097 0.271409 0.674127 0.171242 0.839248 0.102989C1.00437 0.0347359 1.18134 -0.000261859 1.36001 1.47506e-06H18.986C19.1647 -0.000261859 19.3416 0.0347359 19.5068 0.102989C19.6719 0.171242 19.8219 0.271409 19.9483 0.397749C20.0746 0.524089 20.1748 0.674119 20.243 0.839241C20.3113 1.00436 20.3463 1.18133 20.346 1.36V17.952H20.347ZM18.828 17.042V1.519H1.51901V24.485H11.755V17.806C11.7549 17.7056 11.7745 17.6062 11.8129 17.5135C11.8512 17.4207 11.9075 17.3364 11.9785 17.2655C12.0495 17.1945 12.1337 17.1382 12.2265 17.0999C12.3192 17.0615 12.4186 17.0419 12.519 17.042H18.828Z" fill="#073880"/>
</svg>
